HIERARCHY
ROOT Hips
{
  OFFSET -395.107 72.9688 1341.08
  CHANNELS 6 Xposition Yposition Zposition Zrotation Xrotation Yrotation
  JOINT Spine
  {
    OFFSET 0 8 0
    CHANNELS 6 Xposition Yposition Zposition Zrotation Xrotation Yrotation
    JOINT Spine1
    {
      OFFSET 0 8 0
      CHANNELS 6 Xposition Yposition Zposition Zrotation Xrotation Yrotation
      JOINT Spine2
      {
        OFFSET 0 8 0
        CHANNELS 6 Xposition Yposition Zposition Zrotation Xrotation Yrotation
        JOINT Spine3
        {
          OFFSET 0 8 0
          CHANNELS 6 Xposition Yposition Zposition Zrotation Xrotation Yrotation
          JOINT Neck
          {
            OFFSET 0 17 0
            CHANNELS 6 Xposition Yposition Zposition Zrotation Xrotation Yrotation
            JOINT Head
            {
              OFFSET 0 10.8 0
              CHANNELS 6 Xposition Yposition Zposition Zrotation Xrotation Yrotation
              End Site
              {
                OFFSET 0 20.25 0
              }
            }
          }
          JOINT LeftShoulder
          {
            OFFSET 5 17 0
            CHANNELS 6 Xposition Yposition Zposition Zrotation Xrotation Yrotation
            JOINT LeftShoulder2
            {
              OFFSET 6.45 0 0
              CHANNELS 6 Xposition Yposition Zposition Zrotation Xrotation Yrotation
              JOINT LeftArm
              {
                OFFSET 6.45 0 0
                CHANNELS 6 Xposition Yposition Zposition Zrotation Xrotation Yrotation
                JOINT LeftForeArm
                {
                  OFFSET 0 -32.4 -2
                  CHANNELS 6 Xposition Yposition Zposition Zrotation Xrotation Yrotation
                  JOINT LeftHand
                  {
                    OFFSET 0 -25.65 2
                    CHANNELS 6 Xposition Yposition Zposition Zrotation Xrotation Yrotation
                    JOINT LeftHandThumb1
                    {
                      OFFSET -0.5 -1.5 2.65
                      CHANNELS 6 Xposition Yposition Zposition Zrotation Xrotation Yrotation
                      JOINT LeftHandThumb2
                      {
                        OFFSET 0 -3.8 3.7
                        CHANNELS 6 Xposition Yposition Zposition Zrotation Xrotation Yrotation
                        JOINT LeftHandThumb3
                        {
                          OFFSET 0 -3 2.7
                          CHANNELS 6 Xposition Yposition Zposition Zrotation Xrotation Yrotation
                          End Site
                          {
                            OFFSET 0 -2.3 1.8
                          }
                        }
                      }
                    }
                    JOINT LeftHandIndex
                    {
                      OFFSET 0 -1.9 1.6
                      CHANNELS 6 Xposition Yposition Zposition Zrotation Xrotation Yrotation
                      JOINT LeftHandIndex1
                      {
                        OFFSET 0 -8.3 1.9
                        CHANNELS 6 Xposition Yposition Zposition Zrotation Xrotation Yrotation
                        JOINT LeftHandIndex2
                        {
                          OFFSET 0 -4.5 0
                          CHANNELS 6 Xposition Yposition Zposition Zrotation Xrotation Yrotation
                          JOINT LeftHandIndex3
                          {
                            OFFSET 0 -3.4 0
                            CHANNELS 6 Xposition Yposition Zposition Zrotation Xrotation Yrotation
                            End Site
                            {
                              OFFSET 0 -2.6 0
                            }
                          }
                        }
                      }
                    }
                    JOINT LeftHandMiddle
                    {
                      OFFSET -0.25 -2.2 0.4
                      CHANNELS 6 Xposition Yposition Zposition Zrotation Xrotation Yrotation
                      JOINT LeftHandMiddle1
                      {
                        OFFSET 0 -8.3 1
                        CHANNELS 6 Xposition Yposition Zposition Zrotation Xrotation Yrotation
                        JOINT LeftHandMiddle2
                        {
                          OFFSET 0 -4.65 0
                          CHANNELS 6 Xposition Yposition Zposition Zrotation Xrotation Yrotation
                          JOINT LeftHandMiddle3
                          {
                            OFFSET 0 -3.3 0
                            CHANNELS 6 Xposition Yposition Zposition Zrotation Xrotation Yrotation
                            End Site
                            {
                              OFFSET 0 -2.7 0
                            }
                          }
                        }
                      }
                    }
                    JOINT LeftHandRing
                    {
                      OFFSET -0.5 -2.15 -0.8
                      CHANNELS 6 Xposition Yposition Zposition Zrotation Xrotation Yrotation
                      JOINT LeftHandRing1
                      {
                        OFFSET 0 -7.75 -0.2
                        CHANNELS 6 Xposition Yposition Zposition Zrotation Xrotation Yrotation
                        JOINT LeftHandRing2
                        {
                          OFFSET 0 -3.8 0
                          CHANNELS 6 Xposition Yposition Zposition Zrotation Xrotation Yrotation
                          JOINT LeftHandRing3
                          {
                            OFFSET 0 -3.4 0
                            CHANNELS 6 Xposition Yposition Zposition Zrotation Xrotation Yrotation
                            End Site
                            {
                              OFFSET 0 -2.6 0
                            }
                          }
                        }
                      }
                    }
                    JOINT LeftHandPinky
                    {
                      OFFSET -0.75 -1.75 -1.85
                      CHANNELS 6 Xposition Yposition Zposition Zrotation Xrotation Yrotation
                      JOINT LeftHandPinky1
                      {
                        OFFSET 0 -7.15 -1
                        CHANNELS 6 Xposition Yposition Zposition Zrotation Xrotation Yrotation
                        JOINT LeftHandPinky2
                        {
                          OFFSET 0 -3 0
                          CHANNELS 6 Xposition Yposition Zposition Zrotation Xrotation Yrotation
                          JOINT LeftHandPinky3
                          {
                            OFFSET 0 -2.35 0
                            CHANNELS 6 Xposition Yposition Zposition Zrotation Xrotation Yrotation
                            End Site
                            {
                              OFFSET 0 -2.1 0
                            }
                          }
                        }
                      }
                    }
                  }
                }
              }
            }
          }
          JOINT RightShoulder
          {
            OFFSET -5 17 0
            CHANNELS 6 Xposition Yposition Zposition Zrotation Xrotation Yrotation
            JOINT RightShoulder2
            {
              OFFSET -6.45 0 0
              CHANNELS 6 Xposition Yposition Zposition Zrotation Xrotation Yrotation
              JOINT RightArm
              {
                OFFSET -6.45 0 0
                CHANNELS 6 Xposition Yposition Zposition Zrotation Xrotation Yrotation
                JOINT RightForeArm
                {
                  OFFSET 0 -32.4 -2
                  CHANNELS 6 Xposition Yposition Zposition Zrotation Xrotation Yrotation
                  JOINT RightHand
                  {
                    OFFSET 0 -25.65 2
                    CHANNELS 6 Xposition Yposition Zposition Zrotation Xrotation Yrotation
                    JOINT RightHandThumb1
                    {
                      OFFSET 0.5 -1.5 2.65
                      CHANNELS 6 Xposition Yposition Zposition Zrotation Xrotation Yrotation
                      JOINT RightHandThumb2
                      {
                        OFFSET 0 -3.8 3.7
                        CHANNELS 6 Xposition Yposition Zposition Zrotation Xrotation Yrotation
                        JOINT RightHandThumb3
                        {
                          OFFSET 0 -3 2.7
                          CHANNELS 6 Xposition Yposition Zposition Zrotation Xrotation Yrotation
                          End Site
                          {
                            OFFSET 0 -2.3 1.8
                          }
                        }
                      }
                    }
                    JOINT RightHandIndex
                    {
                      OFFSET 0 -1.9 1.6
                      CHANNELS 6 Xposition Yposition Zposition Zrotation Xrotation Yrotation
                      JOINT RightHandIndex1
                      {
                        OFFSET 0 -8.3 1.9
                        CHANNELS 6 Xposition Yposition Zposition Zrotation Xrotation Yrotation
                        JOINT RightHandIndex2
                        {
                          OFFSET 0 -4.5 0
                          CHANNELS 6 Xposition Yposition Zposition Zrotation Xrotation Yrotation
                          JOINT RightHandIndex3
                          {
                            OFFSET 0 -3.4 0
                            CHANNELS 6 Xposition Yposition Zposition Zrotation Xrotation Yrotation
                            End Site
                            {
                              OFFSET 0 -2.6 0
                            }
                          }
                        }
                      }
                    }
                    JOINT RightHandMiddle
                    {
                      OFFSET 0.25 -2.2 0.4
                      CHANNELS 6 Xposition Yposition Zposition Zrotation Xrotation Yrotation
                      JOINT RightHandMiddle1
                      {
                        OFFSET 0 -8.3 1
                        CHANNELS 6 Xposition Yposition Zposition Zrotation Xrotation Yrotation
                        JOINT RightHandMiddle2
                        {
                          OFFSET 0 -4.65 0
                          CHANNELS 6 Xposition Yposition Zposition Zrotation Xrotation Yrotation
                          JOINT RightHandMiddle3
                          {
                            OFFSET 0 -3.3 0
                            CHANNELS 6 Xposition Yposition Zposition Zrotation Xrotation Yrotation
                            End Site
                            {
                              OFFSET 0 -2.7 0
                            }
                          }
                        }
                      }
                    }
                    JOINT RightHandRing
                    {
                      OFFSET 0.5 -2.15 -0.8
                      CHANNELS 6 Xposition Yposition Zposition Zrotation Xrotation Yrotation
                      JOINT RightHandRing1
                      {
                        OFFSET 0 -7.75 -0.2
                        CHANNELS 6 Xposition Yposition Zposition Zrotation Xrotation Yrotation
                        JOINT RightHandRing2
                        {
                          OFFSET 0 -3.8 0
                          CHANNELS 6 Xposition Yposition Zposition Zrotation Xrotation Yrotation
                          JOINT RightHandRing3
                          {
                            OFFSET 0 -3.4 0
                            CHANNELS 6 Xposition Yposition Zposition Zrotation Xrotation Yrotation
                            End Site
                            {
                              OFFSET 0 -2.6 0
                            }
                          }
                        }
                      }
                    }
                    JOINT RightHandPinky
                    {
                      OFFSET 0.75 -1.75 -1.85
                      CHANNELS 6 Xposition Yposition Zposition Zrotation Xrotation Yrotation
                      JOINT RightHandPinky1
                      {
                        OFFSET 0 -7.15 -1
                        CHANNELS 6 Xposition Yposition Zposition Zrotation Xrotation Yrotation
                        JOINT RightHandPinky2
                        {
                          OFFSET 0 -3 0
                          CHANNELS 6 Xposition Yposition Zposition Zrotation Xrotation Yrotation
                          JOINT RightHandPinky3
                          {
                            OFFSET 0 -2.35 0
                            CHANNELS 6 Xposition Yposition Zposition Zrotation Xrotation Yrotation
                            End Site
                            {
                              OFFSET 0 -2.1 0
                            }
                          }
                        }
                      }
                    }
                  }
                }
              }
            }
          }
        }
      }
    }
  }
  JOINT LeftUpLeg
  {
    OFFSET 8 0 0
    CHANNELS 6 Xposition Yposition Zposition Zrotation Xrotation Yrotation
    JOINT LeftLeg
    {
      OFFSET 0 -45 -1
      CHANNELS 6 Xposition Yposition Zposition Zrotation Xrotation Yrotation
      JOINT LeftFoot
      {
        OFFSET 0 -41 -2
        CHANNELS 6 Xposition Yposition Zposition Zrotation Xrotation Yrotation
        JOINT LeftToeBase
        {
          OFFSET 0 -7.5 12.5
          CHANNELS 6 Xposition Yposition Zposition Zrotation Xrotation Yrotation
          JOINT LeftFootToe
          {
            OFFSET 0 0 4
            CHANNELS 6 Xposition Yposition Zposition Zrotation Xrotation Yrotation
            End Site
            {
              OFFSET 0 0 0
            }
          }
        }
      }
    }
  }
  JOINT RightUpLeg
  {
    OFFSET -8 0 0
    CHANNELS 6 Xposition Yposition Zposition Zrotation Xrotation Yrotation
    JOINT RightLeg
    {
      OFFSET 0 -45 -1
      CHANNELS 6 Xposition Yposition Zposition Zrotation Xrotation Yrotation
      JOINT RightFoot
      {
        OFFSET 0 -41 -2
        CHANNELS 6 Xposition Yposition Zposition Zrotation Xrotation Yrotation
        JOINT RightToeBase
        {
          OFFSET 0 -7.5 12.5
          CHANNELS 6 Xposition Yposition Zposition Zrotation Xrotation Yrotation
          JOINT RightFootToe
          {
            OFFSET 0 0 4
            CHANNELS 6 Xposition Yposition Zposition Zrotation Xrotation Yrotation
            End Site
            {
              OFFSET 0 0 0
            }
          }
        }
      }
    }
  }
}
MOTION
Frames:	3
Frame Time:	0.0111111
-388.484 76.2009 1340.22 -2.17592 2.35938 179.588 0 8 -2.27374e-13 10.7687 12.9933 -11.3411 -1.13687e-13 8 2.27374e-13 -0.196779 7.42074 0.642833 0 8 0 -0.0878565 3.71457 0.317886 -2.84217e-14 8 0 -0.0876495 3.70672 0.317211 1.42109e-13 17 0 3.41928 1.09209 -6.57244 -5.68434e-14 10.8 0 8.15827 1.92588 -15.4676 5 17 0 -5.30248 -2.8344 -0.338104 6.45 5.68434e-14 -2.27374e-13 -0.781754 -0.448916 5.09439 6.45 0 0 28.1292 45.9797 56.6814 0 -32.4 -2 -126.651 -21.139 -131.94 1.13687e-13 -25.65 2 19.2303 -7.7858 -22.0663 -0.5 -1.5 2.65 -166.146 -82.8358 -20.6194 0 -3.8 3.7 -0.206667 17.1585 0.0719935 0 -3 2.7 -0.0549311 0.915995 0.00343332 -2.84217e-14 -1.9 1.6 -3.18055e-15 1.59028e-15 -1.19271e-15 0 -8.3 1.9 -27.4671 23.2523 6.59263 4.54747e-13 -4.5 1.13687e-13 -64.7981 -0.00458295 -0.0299388 -1.13687e-13 -3.4 0 -46.4287 0.00602155 -0.0277031 -0.25 -2.2 0.4 -3.18055e-15 1.59028e-15 -1.19271e-15 -2.27374e-13 -8.3 1 -32.0511 16.5111 6.23223 -1.13687e-13 -4.65 0 -72.9676 0.00172705 -0.028779 0 -3.3 0 -90.0002 1.90833e-14 -3.18055e-14 -0.5 -2.15 -0.8 -3.18055e-15 1.59028e-15 -1.19271e-15 -2.27374e-13 -7.75 -0.2 -53.4184 11.5263 12.0884 2.27374e-13 -3.8 -1.13687e-13 -1.77349 -0.000191692 -0.000606073 1.13687e-13 -3.4 0 -90.0002 -0.0023397 0.00119138 -0.75 -1.75 -1.85 -3.18055e-15 1.59028e-15 -1.19271e-15 0 -7.15 -1 -6.94247 21.4693 2.2912 -5.68434e-14 -3 1.13687e-13 -70.4639 0.00419593 0.0899898 -1.13687e-13 -2.35 1.13687e-13 -90.0002 6.36111e-15 2.5842e-14 -5 17 -2.27374e-13 6.43695 -2.69236 -0.563641 -6.45 5.68434e-14 2.27374e-13 -2.00684 0.565538 -3.32144 -6.45 0 -2.27374e-13 -29.6019 13.0504 4.89226 5.68434e-14 -32.4 -2 -2.58846 -84.435 -2.00089 0 -25.65 2 -3.23014 2.46376 25.2895 0.5 -1.5 2.65 -14.8827 -0.162962 -2.78822 0 -3.8 3.7 0.078446 30.1755 -0.0185982 5.68434e-14 -3 2.7 0.00740518 -0.212652 -0.0136991 0 -1.9 1.6 -0 0 3.18055e-15 0 -8.3 1.9 0.488463 -5.91221 -0.00126122 -1.13687e-13 -4.5 0 -3.18055e-15 0 0.000269247 -1.13687e-13 -3.4 -1.13687e-13 -1.59028e-15 -9.54166e-15 -1.92246e-07 0.25 -2.2 0.4 -0 0 3.18055e-15 -1.13687e-13 -8.3 1 6.87912 -5.07598 0.00317088 -1.13687e-13 -4.65 -1.13687e-13 30.5515 0.0420894 -0.035094 0 -3.3 1.13687e-13 22.4192 0.0156033 -0.029026 0.5 -2.15 -0.8 -0 0 3.18055e-15 0 -7.75 -0.2 19.3776 -5.39594 0.0498173 -1.13687e-13 -3.8 1.13687e-13 61.5403 0.0186713 -0.0580215 0 -3.4 1.13687e-13 43.4756 -0.0223879 -0.0472879 0.75 -1.75 -1.85 -0 0 3.18055e-15 -1.13687e-13 -7.15 -1 29.1066 -8.89582 1.05233 0 -3 1.13687e-13 74.8642 -0.0126177 -0.0287473 0 -2.35 0 58.0362 -0.0430319 -0.0059794 8 1.42109e-14 -2.27374e-13 -17.9858 -47.5881 -25.2681 -1.13687e-13 -45 -1 1.7169 40.2968 -5.39761 -2.84217e-13 -41 -2 -5.85329 9.2153 0.0162342 -5.68434e-14 -7.5 12.5 6.62086e-32 -1.19271e-15 3.18055e-15 1.13687e-13 0 4 0.377708 -13.9221 42.8982 -8 1.42109e-14 -2.27374e-13 -61.9241 -36.5643 -67.9002 0 -45 -1 -41.5371 79.9315 50.1712 -1.13687e-13 -41 -2 4.79602 4.83425 12.5881 -5.68434e-14 -7.5 12.5 -0 -1.59028e-15 -0 2.27374e-13 5.68434e-14 4 -20.6049 -12.164 70.1291 
-388.511 76.1775 1340.25 -2.1763 2.41108 179.622 0 8 2.27374e-13 10.674 12.8597 -11.346 0 8 0 -0.185596 7.40669 0.65717 2.84217e-14 8 0 -0.0820602 3.70751 0.32524 -8.52651e-14 8 0 -0.0818634 3.69971 0.324549 1.13687e-13 17 2.27374e-13 3.43657 1.10618 -6.58379 5.68434e-14 10.8 0 8.20146 1.95439 -15.4962 5 17 2.27374e-13 -5.23664 -2.80665 -0.310809 6.45 5.68434e-14 0 -0.757905 -0.447803 5.11146 6.45 -5.68434e-14 0 29.2262 46.156 55.4095 5.68434e-14 -32.4 -2 -127.187 -21.6029 -132.355 0 -25.65 2 18.0402 -7.10926 -22.6994 -0.5 -1.5 2.65 -168.013 -84.093 -22.1197 -1.13687e-13 -3.8 3.7 -0.216882 18.6691 0.0752655 0 -3 2.7 -0.0870354 1.72633 0.00339852 0 -1.9 1.6 -6.36111e-15 1.59028e-15 -2.38542e-15 2.84217e-14 -8.3 1.9 -28.1853 23.1847 6.74307 1.13687e-13 -4.5 0 -64.3017 -0.00429868 -0.0316568 1.13687e-13 -3.4 1.13687e-13 -45.9516 0.00558142 -0.0284855 -0.25 -2.2 0.4 -6.36111e-15 1.59028e-15 -2.38542e-15 -2.55795e-13 -8.3 1 -32.7522 16.5206 6.37157 0 -4.65 0 -72.485 0.00178434 -0.0466469 0 -3.3 1.13687e-13 -90.0002 -9.54166e-15 -1.90833e-14 -0.5 -2.15 -0.8 -6.36111e-15 1.59028e-15 -2.38542e-15 -2.27374e-13 -7.75 -0.2 -53.8696 11.2933 12.1446 -1.13687e-13 -3.8 -1.13687e-13 -1.77349 -0.000191692 -0.000606073 0 -3.4 0 -90.0002 -0.0023433 0.0011932 -0.75 -1.75 -1.85 -6.36111e-15 1.59028e-15 -2.38542e-15 0 -7.15 -1 -7.21681 21.8299 2.40621 0 -3 1.13687e-13 -72.0798 0.00753387 0.0718445 -1.13687e-13 -2.35 1.13687e-13 -90.0002 6.67916e-14 -4.49253e-14 -5 17 2.27374e-13 6.47417 -2.69026 -0.520061 -6.45 0 -2.27374e-13 -2.00924 0.574053 -3.32228 -6.45 0 0 -29.4197 12.9405 5.12765 5.68434e-14 -32.4 -2 -3.61837 -83.1638 -2.54133 5.68434e-14 -25.65 2 -3.07956 1.78241 26.1094 0.5 -1.5 2.65 -13.9333 0.0105656 -2.34189 0 -3.8 3.7 0.0526827 31.0844 -0.0113732 0 -3 2.7 0.00732487 -0.212652 -0.0141527 0 -1.9 1.6 4.77083e-15 6.36111e-15 3.18055e-15 0 -8.3 1.9 0.470773 -5.81083 -0.00122767 0 -4.5 0 -4.77082e-15 -3.18055e-15 0.000132581 0 -3.4 -1.13687e-13 -1.11319e-14 -6.36111e-15 -4.8253e-08 0.25 -2.2 0.4 4.77083e-15 6.36111e-15 3.18055e-15 -1.13687e-13 -8.3 1 6.81581 -5.16071 0.0177181 0 -4.65 -1.13687e-13 30.4785 0.0017767 -0.00404128 0 -3.3 1.13687e-13 22.3744 -1.83933e-05 -0.0025133 0.5 -2.15 -0.8 4.77083e-15 6.36111e-15 3.18055e-15 0 -7.75 -0.2 19.1909 -5.64629 0.122104 1.13687e-13 -3.8 0 62.3705 0.00498939 -0.0286921 0 -3.4 2.27374e-13 44.169 -0.0143585 -0.0213658 0.75 -1.75 -1.85 4.77083e-15 6.36111e-15 3.18055e-15 1.13687e-13 -7.15 -1 28.0956 -8.6918 0.988643 0 -3 1.13687e-13 75.2164 -0.0106342 -0.0226956 1.13687e-13 -2.35 1.13687e-13 58.5169 -0.0347152 -0.00401529 8 1.42109e-14 -2.27374e-13 -17.9931 -47.5699 -25.1882 -1.13687e-13 -45 -1 1.73247 40.2924 -5.44737 -5.68434e-14 -41 -2 -5.80981 9.23346 -0.0667025 5.68434e-14 -7.5 12.5 -6.62086e-32 -1.19271e-15 -3.18055e-15 -5.68434e-14 7.10543e-15 4 0.396924 -13.9381 42.9067 -8 0 2.27374e-13 -61.9241 -36.5643 -67.9002 0 -45 -1 -41.2892 79.9411 49.8747 0 -41 -2 4.79602 4.83425 12.5881 0 -7.5 12.5 -1.59028e-15 -4.77083e-15 -0 1.7053e-13 -5.68434e-14 4 -20.5441 -12.0706 70.0104 
-388.542 76.1505 1340.29 -2.17692 2.46749 179.665 0 8 0 10.5818 12.7242 -11.364 -1.13687e-13 8 -2.27374e-13 -0.173586 7.3915 0.669206 2.84217e-14 8 -2.27374e-13 -0.0758861 3.69989 0.331454 0 8 4.54747e-13 -0.0757051 3.69213 0.330752 1.13687e-13 17 0 3.44795 1.11942 -6.5896 1.13687e-13 10.8 0 8.23058 1.9825 -15.5116 5 17 2.27374e-13 -5.17414 -2.78366 -0.270367 6.45 0 -2.27374e-13 -0.734655 -0.443876 5.12764 6.45 -5.68434e-14 -2.27374e-13 30.4634 46.3269 54.0441 0 -32.4 -2 -127.753 -22.0557 -132.795 1.13687e-13 -25.65 2 16.6505 -6.40294 -23.3795 -0.5 -1.5 2.65 -172.101 -85.5198 -26.0197 -5.68434e-14 -3.8 3.7 -0.227992 20.2195 0.0815473 0 -3 2.7 -0.105019 2.56766 0.00337013 -5.68434e-14 -1.9 1.6 -3.18055e-15 3.18055e-15 1.19271e-15 0 -8.3 1.9 -28.612 23.1366 6.8273 2.27374e-13 -4.5 1.13687e-13 -63.8157 -0.00402965 -0.0330546 2.27374e-13 -3.4 0 -45.4857 0.00519265 -0.0291311 -0.25 -2.2 0.4 -3.18055e-15 3.18055e-15 1.19271e-15 -2.84217e-13 -8.3 1 -33.21 16.5403 6.46594 1.13687e-13 -4.65 1.13687e-13 -71.8209 0.00183798 -0.0591147 0 -3.3 0 -90.0002 2.8625e-14 -3.81667e-14 -0.5 -2.15 -0.8 -3.18055e-15 3.18055e-15 1.19271e-15 -2.27374e-13 -7.75 -0.2 -54.1733 10.9669 12.1439 1.13687e-13 -3.8 -1.13687e-13 -1.77349 -0.000191692 -0.000606073 0 -3.4 0 -90.0002 -0.0023469 0.001195 -0.75 -1.75 -1.85 -3.18055e-15 3.18055e-15 1.19271e-15 0 -7.15 -1 -7.44397 22.1285 2.49657 -5.68434e-14 -3 1.13687e-13 -73.3524 0.0114973 0.0587867 1.13687e-13 -2.35 0 -90.0002 5.40694e-14 -3.97569e-14 -5 17 2.27374e-13 6.50588 -2.68847 -0.45655 -6.45 5.68434e-14 0 -2.01657 0.57491 -3.32343 -6.45 -5.68434e-14 -4.54747e-13 -29.2098 12.8344 5.31913 1.13687e-13 -32.4 -2 -4.69421 -81.9026 -3.09036 5.68434e-14 -25.65 2 -2.92674 0.904955 26.9223 0.5 -1.5 2.65 -12.9879 0.202049 -1.75756 0 -3.8 3.7 0.0131375 32.138 -9.34586e-05 0 -3 2.7 0.00726124 -0.212652 -0.0146472 0 -1.9 1.6 1.59028e-15 -6.36111e-15 1.27222e-14 0 -8.3 1.9 0.457588 -5.74374 -0.00122449 -1.13687e-13 -4.5 3.41061e-13 -1.76556e-31 3.18055e-15 3.18055e-15 1.13687e-13 -3.4 -2.27374e-13 3.18055e-15 -9.54166e-15 6.36111e-15 0.25 -2.2 0.4 1.59028e-15 -6.36111e-15 1.27222e-14 -1.13687e-13 -8.3 1 6.66147 -5.14487 0.0227753 0 -4.65 0 29.9523 -0.0349496 0.0170912 0 -3.3 1.13687e-13 22.0516 -0.0160793 0.0173947 0.5 -2.15 -0.8 1.59028e-15 -6.36111e-15 1.27222e-14 1.13687e-13 -7.75 -0.2 18.7529 -5.64117 0.140043 1.13687e-13 -3.8 0 62.6325 -0.000527351 -0.00434422 0 -3.4 0 44.393 -0.00272309 -0.0027814 0.75 -1.75 -1.85 1.59028e-15 -6.36111e-15 1.27222e-14 1.13687e-13 -7.15 -1 26.9352 -8.3029 0.872234 -2.27374e-13 -3 1.13687e-13 75.2747 -0.00280864 -0.00521296 0 -2.35 0 58.5937 -0.00852007 -0.00053725 8 2.84217e-14 -2.27374e-13 -18.0056 -47.5538 -25.0852 -1.13687e-13 -45 -1 1.74825 40.2933 -5.49711 -1.7053e-13 -41 -2 -5.74719 9.23833 -0.179091 0 -7.5 12.5 -9.93923e-17 -1.19271e-15 3.18055e-15 0 -7.10543e-15 4 0.410502 -13.9332 42.9185 -8 2.84217e-14 0 -61.9241 -36.5643 -67.9002 -1.13687e-13 -45 -1 -41.0394 79.9655 49.5628 0 -41 -2 4.79602 4.83425 12.5881 0 -7.5 12.5 -1.59028e-15 1.59028e-15 -0 1.7053e-13 0 4 -20.4811 -11.9782 69.9126 
